# xmcd CD database file
#
# Track frame offsets:
#	150
#	24382
#	39055
#	59090
#	77457
#	91147
#	111457
#	130347
#	147537
#	163422
#
# Disc length: 2405 seconds
#
# Revision: 0
# Processed by: cddbd v1.5PL3 Copyright (c) Steve Scherf et al.
# Submitted via: CDex 1.50
#
DISCID=8609630a
DTITLE=日高のり子 - 南の青春
DYEAR=1900
DGENRE=Anime
TTITLE0=好きになるなら
TTITLE1=風のメッセージ
TTITLE2=君がいなければ
TTITLE3=風のシルエット
TTITLE4=夢で逢いたい
TTITLE5=スウィング
TTITLE6=TWIN
TTITLE7=女の子って不思議なの
TTITLE8=風のマイソルジャー
TTITLE9=Tell Me Why?
EXTD=
EXTT0=
EXTT1=
EXTT2=
EXTT3=
EXTT4=
EXTT5=
EXTT6=
EXTT7=
EXTT8=
EXTT9=
PLAYORDER=
